<?xml version="1.0" standalone="no"?>
<!DOCTYPE svg PUBLIC "-//W3C//DTD SVG 20010904//EN"
 "http://www.w3.org/TR/2001/REC-SVG-20010904/DTD/svg10.dtd">
<svg version="1.0" xmlns="http://www.w3.org/2000/svg"
 width="256.000000pt" height="320.000000pt" viewBox="0 0 256.000000 320.000000"
 preserveAspectRatio="xMidYMid meet">

<g transform="translate(0.000000,320.000000) scale(0.100000,-0.100000)"
fill="#9a3412" stroke="none">
<path d="M1140 3065 c-9 -11 -16 -12 -26 -4 -21 17 -35 2 -22 -26 9 -19 7 -29
-6 -50 -19 -28 -34 -32 -42 -10 -4 8 -17 15 -30 15 -18 0 -24 -5 -24 -21 0
-12 -11 -32 -24 -44 l-25 -23 -3 22 c-3 19 -9 21 -65 21 -46 0 -67 -5 -82 -19
-21 -19 -22 -19 -51 9 l-29 28 -35 -27 c-29 -21 -35 -34 -38 -69 -3 -46 9
-115 25 -135 5 -7 18 -10 28 -7 15 5 19 1 19 -17 0 -24 -24 -39 -82 -54 -16
-3 -28 -10 -28 -14 0 -11 30 -34 30 -24 0 5 5 1 11 -9 6 -9 14 -15 20 -12 5 3
17 1 26 -4 16 -9 16 -10 -4 -11 -27 0 -29 -7 -6 -32 22 -24 2 -23 -30 2 -14
11 -28 16 -31 11 -3 -5 1 -12 10 -15 8 -3 13 -10 10 -15 -4 -5 0 -12 6 -14 7
-3 3 -6 -9 -6 -12 -1 -25 -6 -29 -12 -4 -6 -20 -8 -40 -4 -33 6 -34 5 -34 -29
0 -31 5 -38 57 -70 32 -20 64 -36 73 -36 24 0 49 -35 52 -73 3 -31 -5 -41
-108 -138 -74 -69 -128 -111 -162 -125 l-50 -22 -31 45 c-31 44 -33 45 -52 28
-15 -14 -16 -21 -7 -32 9 -11 9 -16 -3 -23 -11 -8 -11 -12 6 -25 18 -14 18
-17 4 -27 -14 -10 -11 -18 24 -72 22 -34 58 -80 80 -103 l40 -41 -42 -77 c-45
-83 -48 -95 -27 -95 7 0 21 -11 30 -25 16 -24 15 -28 -10 -77 -15 -29 -28 -55
-30 -57 -1 -2 -17 7 -34 19 -23 17 -34 19 -44 11 -24 -20 -49 15 -42 60 8 48
-14 58 -43 19 -26 -36 -26 -40 -2 -40 14 0 20 -10 25 -37 11 -68 7 -86 -25
-119 l-31 -32 30 -16 c24 -13 50 -45 40 -50 -2 -1 -19 -14 -39 -28 -19 -14
-51 -33 -71 -41 -42 -18 -49 -26 -41 -55 4 -16 13 -22 32 -22 15 0 32 -5 39
-12 9 -9 15 -9 24 0 20 20 25 14 30 -38 3 -34 12 -56 24 -65 18 -14 18 -16 2
-28 -15 -12 -15 -14 3 -25 10 -7 37 -12 59 -12 44 0 47 -5 24 -38 -14 -20 -14
-22 1 -22 9 0 32 -16 50 -36 26 -27 39 -34 52 -29 38 17 79 17 92 1 8 -9 22
-16 32 -16 26 0 33 -19 14 -40 -16 -17 -15 -19 5 -30 33 -17 60 -4 60 31 0 30
17 40 26 14 3 -8 21 -23 40 -34 20 -12 34 -28 34 -40 0 -11 4 -22 10 -26 5 -3
-14 -48 -41 -100 -28 -52 -48 -95 -45 -95 3 0 26 36 52 79 42 73 74 107 74 79
0 -16 32 -37 58 -38 17 0 24 -7 28 -30 5 -21 12 -30 26 -30 11 0 22 -9 25 -20
9 -33 52 -54 110 -51 l53 2 0 -34 c0 -29 6 -39 34 -56 18 -12 49 -24 67 -27
19 -4 48 -17 64 -29 17 -12 38 -24 48 -28 10 -4 26 -27 37 -52 24 -57 43 -60
34 -5 -4 25 -2 45 6 55 6 8 9 18 6 24 -4 5 -1 21 5 35 l12 25 25 -19 c13 -11
30 -20 37 -20 17 0 26 25 14 37 -7 7 1 26 23 57 29 43 34 45 45 30 8 -11 16
-14 21 -8 5 5 35 41 66 81 50 63 61 71 85 68 16 -2 38 -9 49 -16 12 -7 23 -11
24 -9 22 30 58 92 58 99 0 6 -25 26 -55 46 -55 34 -59 41 -55 80 3 32 18 43
76 55 71 15 139 79 149 141 6 37 4 44 -34 89 -22 26 -45 59 -51 72 -6 13 -25
31 -42 41 -22 12 -28 21 -21 28 15 15 49 -5 105 -63 26 -26 50 -48 54 -48 3 0
15 11 25 24 16 21 173 104 269 143 31 13 190 141 190 153 0 5 -4 11 -9 14 -5
3 -8 19 -7 36 2 33 -14 40 -34 15 -7 -9 -21 -13 -31 -10 -13 4 -19 1 -19 -9 0
-12 -11 -16 -50 -16 -38 0 -50 4 -50 15 0 8 -6 15 -14 15 -9 0 -16 16 -20 45
-7 42 -9 44 -34 39 -19 -4 -35 1 -50 13 l-23 18 70 58 c39 31 79 57 89 57 11
0 26 16 39 44 l22 44 -30 12 c-33 14 -31 15 -52 -25 l-15 -30 -7 38 c-7 35
-10 38 -33 32 -14 -3 -31 -14 -38 -23 -10 -13 -15 -14 -25 -5 -10 10 -9 16 1
28 11 14 8 22 -26 58 -21 23 -40 44 -42 46 -1 3 -8 -1 -14 -7 -14 -14 -38 -16
-38 -2 0 5 14 25 30 44 31 35 120 212 120 239 0 8 -7 17 -15 21 -13 5 -12 13
10 55 38 76 34 90 -37 131 -33 19 -63 42 -65 50 -2 8 -9 23 -14 32 -13 25 -11
39 8 60 13 14 14 21 5 30 -21 21 -13 46 26 74 20 16 41 31 46 35 4 4 -6 20
-23 36 -32 27 -32 29 -21 77 l11 48 -67 62 c-81 73 -134 116 -145 116 -4 0
-11 -4 -14 -10 -3 -5 -26 -10 -51 -10 l-44 0 0 -50 0 -50 -39 0 c-25 0 -41 5
-45 15 -3 8 -10 15 -16 15 -5 0 -19 9 -30 20 -11 11 -29 20 -39 20 -11 0 -22
4 -25 9 -3 4 -29 11 -57 14 -31 4 -56 13 -64 23 -14 20 -39 9 -31 -13 5 -13 0
-14 -26 -9 -18 3 -35 11 -39 17 -4 7 -25 13 -48 14 -33 2 -41 -1 -39 -14 4
-22 -32 -26 -76 -7 -22 9 -36 22 -36 33 0 10 -4 24 -9 31 -6 10 -10 10 -21 -3z
m12 -1313 l-5 -82 30 6 c37 7 53 -11 18 -20 -14 -4 -25 -13 -25 -21 0 -26 43
-42 162 -61 l117 -18 -34 -37 c-42 -47 -69 -88 -62 -95 3 -3 21 -6 41 -7 33
-2 36 -5 31 -24 -5 -21 -2 -22 35 -19 32 3 42 0 51 -15 5 -10 16 -19 24 -19 8
0 15 -4 15 -10 0 -5 6 -7 14 -4 29 11 52 -12 51 -52 -1 -21 -7 -40 -13 -42 -7
-2 -12 -17 -12 -33 0 -19 -5 -29 -15 -29 -21 0 -19 -26 5 -50 l20 -20 -72 -2
c-40 -1 -87 -2 -103 -2 -22 -1 -40 -12 -66 -41 -64 -71 -65 -78 -27 -151 18
-35 39 -64 46 -64 17 0 15 -19 -3 -26 -8 -4 -15 -12 -15 -20 0 -8 -5 -14 -11
-14 -17 0 -119 91 -119 106 0 13 -49 44 -70 44 -6 0 -19 7 -27 16 -12 11 -18
12 -23 4 -5 -9 -9 -9 -14 -1 -4 6 -46 23 -93 38 -97 30 -123 46 -116 74 4 14
1 18 -10 14 -12 -5 -31 13 -84 84 -2 3 -8 0 -15 -7 -8 -8 -21 -7 -49 5 -22 8
-46 13 -54 9 -10 -3 -20 5 -30 24 -9 17 -20 30 -25 30 -6 0 -10 7 -10 15 0 8
3 15 8 15 4 0 5 25 4 55 l-4 55 89 0 c94 0 127 10 105 32 -6 6 -12 19 -12 29
0 11 -20 24 -62 40 -35 12 -69 22 -75 21 -16 -3 -16 3 -3 26 17 31 40 111 34
125 -3 9 9 16 38 23 41 8 43 11 46 47 3 31 9 42 33 55 16 10 29 23 29 30 0 7
13 12 29 12 19 0 35 8 45 21 8 12 19 18 24 15 16 -10 72 15 72 31 0 11 7 14
28 10 15 -2 45 1 67 7 40 12 40 12 46 -19 3 -16 4 -67 1 -113z"/>
</g>
</svg>
